<svg width="180" height="40" viewBox="0 0 180 40" fill="none" xmlns="http://www.w3.org/2000/svg">
<g clip-path="url(#clip0_107_1818)">
<mask id="mask0_107_1818" style="mask-type:alpha" maskUnits="userSpaceOnUse" x="0" y="0" width="181" height="41">
<path d="M107.618 24.0034H104.447V39.9999H107.618V36.0012H110.322V33.3497H107.618V24.0034Z" fill="white"/>
<path d="M114.517 30.6983H110.322V33.3497H114.517V39.9999H117.688V24.0034H114.517V30.6983Z" fill="white"/>
<path d="M123.166 24.0034L120.486 26.631V37.3708L123.166 39.9983H131.559L134.24 37.3708V26.631L131.559 24.0034H123.166ZM131.07 36.1829L129.881 37.3484H124.845L123.656 36.1829V27.8188L124.845 26.6533H129.881L131.07 27.8188V36.1829Z" fill="white"/>
<path d="M147.154 36.1829L145.965 37.3484H141.396L140.207 36.1829V26.6549H142.899V24.0034H140.194V26.5672H137.037V37.2576L139.833 39.9999H147.527L150.324 37.2576V24.0034H147.154V36.1829Z" fill="white"/>
<path d="M156.944 30.5165L156.175 29.7623V27.409L156.944 26.6549H161.56L162.33 27.409V28.7802H165.454V26.4715L162.936 24.0034H155.57L153.052 26.4715V30.6998L155.57 33.1664H161.747L162.517 33.9205V36.572L161.723 37.3484H156.899L156.129 36.5943V35.247H153.005V37.5318L155.523 39.9999H163.076L165.64 37.4856V32.9846L163.122 30.5165H156.944Z" fill="white"/>
<path d="M180 26.631V24.0034H168.205V37.3724H171.375V33.2588H179.323V30.6759H171.375V26.631H180Z" fill="white"/>
<path d="M180 37.3723H171.375V39.9999H180V37.3723Z" fill="white"/>
<path d="M13.3226 30.7685V26.2899L10.9919 24.0051H0.757812V37.3964H3.85795V33.192H9.91835L10.9203 34.1741V36.4142L9.91835 37.3964H3.85795V40.0016H11.527L14.0448 37.5335V33.3514L12.389 31.706L13.321 30.7685H13.3226ZM10.1981 29.8773L9.35883 30.7H3.85795V26.6088H9.38323L10.1997 27.4091V29.8773H10.1981Z" fill="white"/>
<path d="M35.9816 24.0034H32.8115V39.9999H35.9816V24.0034Z" fill="white"/>
<path d="M42.299 24.0034H39.1289V37.3708H42.299V24.0034Z" fill="white"/>
<path d="M49.9518 37.3723H42.2991V39.9999H49.9518V37.3723Z" fill="white"/>
<path d="M52.2062 24.0034V37.3484H55.3763V26.6549H61.0886L62.2776 27.8204V36.1829L61.0886 37.3484H55.3763V39.9999H62.65L65.4476 37.2576V26.7458L62.65 24.0034H52.2062Z" fill="white"/>
<path d="M80.0407 39.9999V37.3723H71.4153L71.3958 39.9999H80.0407Z" fill="white"/>
<path d="M68.2435 37.3484L71.4152 37.3724V33.2588H79.364V30.6759H71.4152V26.631H80.0406V24.0034H68.2435V37.3484Z" fill="white"/>
<path d="M95.099 31.3169V26.4715L92.6039 24.0034H82.3699V37.3484H85.5399V33.8759H90.6228L92.0216 35.4065V39.9999H95.1917V34.6986L93.5131 32.8937L95.099 31.3169ZM91.9744 30.5165L91.1579 31.3169H85.5399V26.6086H91.1579L91.9744 27.409V30.5165Z" fill="white"/>
<path d="M88.2465 37.3484H85.5416V39.9999H88.2465V37.3484Z" fill="white"/>
<path d="M26.4941 24.0034V36.1829L25.3051 37.3484H20.7363L19.5473 36.1829V26.6549H22.2018V24.0034H19.4969V26.5672H16.3772V37.2576L19.1732 39.9999H26.8666L29.6642 37.2576V26.6549V24.0034H26.9609H26.4941Z" fill="white"/>
<path d="M17.2508 0.0158691L11.2831 16.0124H14.5003L15.8292 12.4712H21.5643L22.8932 16.0124H26.1104L20.1411 0.0158691H17.2508ZM20.2468 10.137H17.1678L16.3773 9.35898L18.6447 4.05764L21.0389 9.35898L20.2484 10.137H20.2468Z" fill="white"/>
<path d="M10.2113 0H0V2.64349H4.87142V16.0108H8.04312V2.64349H10.2113V0Z" fill="white"/>
<path d="M31.0274 0.0158691H27.8573V16.0124H31.0274V0.0158691Z" fill="white"/>
<path d="M49.3745 0.0158691L47.3917 11.3041H47.299L44.1289 0.0158691H41.751L38.511 11.3041H38.4166L36.4355 0.0158691H33.2427L36.6226 16.0108H39.5828L42.8928 4.76874H42.9871L46.2271 16.0108H49.1874L52.5673 0.0158691H49.3745Z" fill="white"/>
<path d="M58.1853 0.0158691L52.2177 16.0124H55.4349L56.7638 12.4712H62.4989L63.8277 16.0124H67.045L61.0757 0.0158691H58.1853ZM61.1814 10.137H58.1024L57.3119 9.35898L59.5793 4.05764L61.9735 9.35898L61.183 10.137H61.1814Z" fill="white"/>
<path d="M84.5983 0.0158691H81.8934V2.66734H84.5983V0.0158691Z" fill="white"/>
<path d="M71.731 0.0158691H68.6764V16.0124H71.731V0.0158691Z" fill="white"/>
<path d="M78.8405 13.3609L74.4343 0.0158691H71.7294L77.51 16.0108H78.8405H81.8935V2.66574H78.8405V13.3609Z" fill="white"/>
<path d="M12.9227 2.64355H10.2113V5.3014H12.9227V2.64355Z" fill="white"/>
</mask>
<g mask="url(#mask0_107_1818)">
<rect width="180" height="40" fill="url(#paint0_linear_107_1818)"/>
</g>
</g>
<defs>
<linearGradient id="paint0_linear_107_1818" x1="6.70552e-07" y1="20" x2="180" y2="20" gradientUnits="userSpaceOnUse">
<stop stop-color="#00FFB0"/>
<stop offset="1" stop-color="#CCFF00"/>
</linearGradient>
<clipPath id="clip0_107_1818">
<rect width="180" height="40" fill="white"/>
</clipPath>
</defs>
</svg>
